<svg width="540" height="320" viewBox="0 0 540 320" fill="none" xmlns="http://www.w3.org/2000/svg">
<rect width="540" height="320" fill="#E04D4D"/>
<path d="M22.38 245V220.52H31.917C33.379 220.52 34.6257 220.82 35.657 221.421C36.6997 222.022 37.493 222.815 38.037 223.801C38.5923 224.776 38.87 225.83 38.87 226.963C38.87 228.289 38.53 229.451 37.85 230.448C37.17 231.445 36.252 232.131 35.096 232.505L35.062 231.672C36.6373 232.091 37.8613 232.862 38.734 233.984C39.6067 235.106 40.043 236.443 40.043 237.996C40.043 239.424 39.7483 240.659 39.159 241.702C38.581 242.745 37.7423 243.555 36.643 244.133C35.555 244.711 34.263 245 32.767 245H22.38ZM25.44 242.11H32.189C33.0957 242.11 33.906 241.946 34.62 241.617C35.334 241.277 35.895 240.801 36.303 240.189C36.7223 239.577 36.932 238.84 36.932 237.979C36.932 237.152 36.745 236.409 36.371 235.752C36.0083 235.095 35.4927 234.573 34.824 234.188C34.1667 233.791 33.4017 233.593 32.529 233.593H25.44V242.11ZM25.44 230.737H31.883C32.6083 230.737 33.26 230.584 33.838 230.278C34.4273 229.961 34.892 229.519 35.232 228.952C35.5833 228.385 35.759 227.722 35.759 226.963C35.759 225.909 35.402 225.048 34.688 224.379C33.974 223.71 33.039 223.376 31.883 223.376H25.44V230.737ZM48.6498 245.51C47.2784 245.51 46.1281 245.261 45.1988 244.762C44.2808 244.252 43.5838 243.583 43.1078 242.756C42.6431 241.929 42.4108 241.022 42.4108 240.036C42.4108 239.073 42.5921 238.24 42.9548 237.537C43.3288 236.823 43.8501 236.234 44.5188 235.769C45.1874 235.293 45.9864 234.919 46.9158 234.647C47.7884 234.409 48.7631 234.205 49.8398 234.035C50.9278 233.854 52.0271 233.689 53.1378 233.542C54.2484 233.395 55.2854 233.253 56.2488 233.117L55.1608 233.746C55.1948 232.114 54.8661 230.907 54.1748 230.125C53.4948 229.343 52.3161 228.952 50.6388 228.952C49.5281 228.952 48.5534 229.207 47.7148 229.717C46.8874 230.216 46.3038 231.032 45.9638 232.165L43.0908 231.298C43.5328 229.689 44.3884 228.425 45.6578 227.507C46.9271 226.589 48.5988 226.13 50.6728 226.13C52.3388 226.13 53.7668 226.43 54.9568 227.031C56.1581 227.62 57.0194 228.516 57.5408 229.717C57.8014 230.284 57.9658 230.901 58.0338 231.57C58.1018 232.227 58.1358 232.919 58.1358 233.644V245H55.4498V240.597L56.0788 241.005C55.3874 242.49 54.4184 243.612 53.1718 244.371C51.9364 245.13 50.4291 245.51 48.6498 245.51ZM49.1088 242.977C50.1968 242.977 51.1374 242.784 51.9308 242.399C52.7354 242.002 53.3814 241.487 53.8688 240.852C54.3561 240.206 54.6734 239.503 54.8208 238.744C54.9908 238.177 55.0814 237.548 55.0928 236.857C55.1154 236.154 55.1268 235.616 55.1268 235.242L56.1808 235.701C55.1948 235.837 54.2258 235.967 53.2738 236.092C52.3218 236.217 51.4208 236.353 50.5708 236.5C49.7208 236.636 48.9558 236.8 48.2758 236.993C47.7771 237.152 47.3068 237.356 46.8648 237.605C46.4341 237.854 46.0828 238.177 45.8108 238.574C45.5501 238.959 45.4198 239.441 45.4198 240.019C45.4198 240.518 45.5444 240.994 45.7938 241.447C46.0544 241.9 46.4511 242.269 46.9838 242.552C47.5278 242.835 48.2361 242.977 49.1088 242.977ZM60.8558 245V242.399C61.5358 242.524 62.0514 242.501 62.4028 242.331C62.7654 242.15 63.0318 241.838 63.2018 241.396C63.3831 240.943 63.5304 240.376 63.6438 239.696C63.8364 238.619 64.0008 237.418 64.1368 236.092C64.2841 234.766 64.4144 233.315 64.5278 231.74C64.6524 230.153 64.7658 228.453 64.8678 226.64H77.7028V245H74.6768V229.513H67.6218C67.5538 230.556 67.4688 231.627 67.3668 232.726C67.2761 233.825 67.1798 234.896 67.0778 235.939C66.9758 236.97 66.8624 237.934 66.7378 238.829C66.6244 239.713 66.4998 240.478 66.3638 241.124C66.1484 242.235 65.8481 243.124 65.4628 243.793C65.0774 244.45 64.5221 244.875 63.7968 245.068C63.0714 245.272 62.0911 245.249 60.8558 245ZM90.4337 245.51C88.6317 245.51 87.0563 245.113 85.7077 244.32C84.3703 243.515 83.3277 242.399 82.5797 240.971C81.8317 239.532 81.4577 237.854 81.4577 235.939C81.4577 233.933 81.826 232.199 82.5627 230.737C83.2993 229.264 84.325 228.13 85.6397 227.337C86.9657 226.532 88.5183 226.13 90.2977 226.13C92.145 226.13 93.7147 226.555 95.0067 227.405C96.31 228.255 97.2847 229.468 97.9307 231.043C98.588 232.618 98.8713 234.494 98.7807 236.67H95.7207V235.582C95.6867 233.327 95.2277 231.644 94.3437 230.533C93.4597 229.411 92.145 228.85 90.3997 228.85C88.5297 228.85 87.1073 229.451 86.1327 230.652C85.158 231.853 84.6707 233.576 84.6707 235.82C84.6707 237.985 85.158 239.662 86.1327 240.852C87.1073 242.042 88.4957 242.637 90.2977 242.637C91.5103 242.637 92.5643 242.359 93.4597 241.804C94.355 241.249 95.0577 240.45 95.5677 239.407L98.4747 240.41C97.7607 242.031 96.684 243.289 95.2447 244.184C93.8167 245.068 92.213 245.51 90.4337 245.51ZM83.6507 236.67V234.239H97.2167V236.67H83.6507ZM102.549 245V226.64H105.575V234.375H115.231V226.64H118.257V245H115.231V237.248H105.575V245H102.549ZM127.881 245V229.394H121.489V226.64H137.299V229.394H130.907V245H127.881ZM155.545 226.64V245H152.621V231.468L142.999 245H140.5V226.64H143.424V239.985L153.063 226.64H155.545ZM160.289 245V226.64H163.315V234.375H172.971V226.64H175.997V245H172.971V237.248H163.315V245H160.289ZM188.579 245.51C186.754 245.51 185.179 245.096 183.853 244.269C182.538 243.442 181.524 242.297 180.81 240.835C180.096 239.373 179.739 237.696 179.739 235.803C179.739 233.876 180.102 232.188 180.827 230.737C181.552 229.286 182.578 228.159 183.904 227.354C185.23 226.538 186.788 226.13 188.579 226.13C190.415 226.13 191.996 226.544 193.322 227.371C194.648 228.187 195.662 229.326 196.365 230.788C197.079 232.239 197.436 233.91 197.436 235.803C197.436 237.718 197.079 239.407 196.365 240.869C195.651 242.32 194.631 243.459 193.305 244.286C191.979 245.102 190.404 245.51 188.579 245.51ZM188.579 242.637C190.483 242.637 191.9 242.002 192.829 240.733C193.758 239.464 194.223 237.82 194.223 235.803C194.223 233.729 193.753 232.08 192.812 230.856C191.871 229.621 190.46 229.003 188.579 229.003C187.298 229.003 186.244 229.292 185.417 229.87C184.59 230.448 183.972 231.247 183.564 232.267C183.156 233.287 182.952 234.466 182.952 235.803C182.952 237.866 183.428 239.52 184.38 240.767C185.332 242.014 186.732 242.637 188.579 242.637ZM201.162 245V226.64H208.982C209.446 226.64 209.945 226.668 210.478 226.725C211.022 226.77 211.515 226.855 211.957 226.98C212.943 227.241 213.753 227.779 214.388 228.595C215.034 229.4 215.357 230.42 215.357 231.655C215.357 232.346 215.249 232.947 215.034 233.457C214.83 233.967 214.535 234.409 214.15 234.783C213.98 234.953 213.793 235.106 213.589 235.242C213.385 235.378 213.181 235.486 212.977 235.565C213.373 235.633 213.776 235.786 214.184 236.024C214.83 236.375 215.334 236.868 215.697 237.503C216.071 238.138 216.258 238.948 216.258 239.934C216.258 241.181 215.957 242.212 215.357 243.028C214.756 243.833 213.929 244.388 212.875 244.694C212.433 244.819 211.945 244.904 211.413 244.949C210.88 244.983 210.364 245 209.866 245H201.162ZM204.222 242.535H209.696C209.934 242.535 210.217 242.512 210.546 242.467C210.886 242.422 211.186 242.365 211.447 242.297C212.036 242.127 212.461 241.81 212.722 241.345C212.994 240.88 213.13 240.376 213.13 239.832C213.13 239.107 212.926 238.517 212.518 238.064C212.121 237.611 211.594 237.327 210.937 237.214C210.699 237.146 210.438 237.106 210.155 237.095C209.883 237.084 209.639 237.078 209.424 237.078H204.222V242.535ZM204.222 234.579H208.778C209.095 234.579 209.429 234.562 209.781 234.528C210.132 234.483 210.438 234.409 210.699 234.307C211.22 234.114 211.6 233.797 211.838 233.355C212.087 232.902 212.212 232.409 212.212 231.876C212.212 231.287 212.076 230.771 211.804 230.329C211.543 229.876 211.141 229.564 210.597 229.394C210.234 229.258 209.826 229.184 209.373 229.173C208.931 229.15 208.647 229.139 208.523 229.139H204.222V234.579ZM225.12 249.08V242.501C226.151 242.501 226.888 242.167 227.33 241.498C227.772 240.818 228.129 239.702 228.401 238.149C228.582 237.174 228.729 236.132 228.843 235.021C228.956 233.91 229.052 232.675 229.132 231.315C229.222 229.944 229.307 228.385 229.387 226.64H242.035V242.501H243.82V249.08H240.93V245H228.01V249.08H225.12ZM229.778 242.501H239.009V229.139H232.124C232.09 229.944 232.044 230.788 231.988 231.672C231.931 232.545 231.863 233.417 231.784 234.29C231.716 235.163 231.631 235.99 231.529 236.772C231.438 237.543 231.33 238.234 231.206 238.846C231.058 239.696 230.888 240.416 230.696 241.005C230.503 241.594 230.197 242.093 229.778 242.501ZM255.188 245.51C253.386 245.51 251.81 245.113 250.462 244.32C249.124 243.515 248.082 242.399 247.334 240.971C246.586 239.532 246.212 237.854 246.212 235.939C246.212 233.933 246.58 232.199 247.317 230.737C248.053 229.264 249.079 228.13 250.394 227.337C251.72 226.532 253.272 226.13 255.052 226.13C256.899 226.13 258.469 226.555 259.761 227.405C261.064 228.255 262.039 229.468 262.685 231.043C263.342 232.618 263.625 234.494 263.535 236.67H260.475V235.582C260.441 233.327 259.982 231.644 259.098 230.533C258.214 229.411 256.899 228.85 255.154 228.85C253.284 228.85 251.861 229.451 250.887 230.652C249.912 231.853 249.425 233.576 249.425 235.82C249.425 237.985 249.912 239.662 250.887 240.852C251.861 242.042 253.25 242.637 255.052 242.637C256.264 242.637 257.318 242.359 258.214 241.804C259.109 241.249 259.812 240.45 260.322 239.407L263.229 240.41C262.515 242.031 261.438 243.289 259.999 244.184C258.571 245.068 256.967 245.51 255.188 245.51ZM248.405 236.67V234.239H261.971V236.67H248.405ZM267.302 245V226.64H270.328V234.375H279.984V226.64H283.01V245H279.984V237.248H270.328V245H267.302ZM287.773 245L287.756 226.64H290.799V233.287H294.76C295.292 233.287 295.836 233.298 296.392 233.321C296.947 233.344 297.429 233.395 297.837 233.474C298.789 233.655 299.622 233.973 300.336 234.426C301.05 234.879 301.605 235.497 302.002 236.279C302.398 237.05 302.597 238.007 302.597 239.152C302.597 240.739 302.183 241.997 301.356 242.926C300.54 243.844 299.469 244.456 298.143 244.762C297.689 244.864 297.168 244.932 296.579 244.966C296.001 244.989 295.451 245 294.93 245H287.773ZM290.799 242.501H294.981C295.321 242.501 295.7 242.49 296.12 242.467C296.539 242.444 296.913 242.388 297.242 242.297C297.82 242.127 298.335 241.793 298.789 241.294C299.253 240.795 299.486 240.081 299.486 239.152C299.486 238.211 299.259 237.486 298.806 236.976C298.364 236.466 297.78 236.132 297.055 235.973C296.726 235.894 296.38 235.843 296.018 235.82C295.655 235.797 295.309 235.786 294.981 235.786H290.799V242.501Z" fill="white"/>
<path d="M21.4 280V265.6H23.18V271.91H26.72V273.69H23.18V280H21.4ZM32.07 280.3C31.1167 280.3 30.2733 280.11 29.54 279.73C28.8067 279.35 28.1933 278.82 27.7 278.14C27.2067 277.46 26.8333 276.663 26.58 275.75C26.3267 274.837 26.2 273.853 26.2 272.8C26.2 271.733 26.3267 270.747 26.58 269.84C26.8333 268.933 27.2067 268.14 27.7 267.46C28.1933 266.78 28.8067 266.253 29.54 265.88C30.2733 265.5 31.1167 265.31 32.07 265.31C33.03 265.31 33.8733 265.5 34.6 265.88C35.3333 266.253 35.9467 266.78 36.44 267.46C36.9333 268.14 37.3067 268.933 37.56 269.84C37.8133 270.747 37.94 271.733 37.94 272.8C37.94 273.88 37.8133 274.877 37.56 275.79C37.3067 276.703 36.9333 277.5 36.44 278.18C35.9467 278.853 35.3333 279.377 34.6 279.75C33.8733 280.117 33.03 280.3 32.07 280.3ZM32.07 278.6C32.7367 278.6 33.3167 278.45 33.81 278.15C34.31 277.85 34.7233 277.437 35.05 276.91C35.3833 276.377 35.6333 275.76 35.8 275.06C35.9667 274.353 36.05 273.6 36.05 272.8C36.0567 271.993 35.9767 271.24 35.81 270.54C35.65 269.84 35.4033 269.227 35.07 268.7C34.7433 268.167 34.3267 267.753 33.82 267.46C33.32 267.16 32.7367 267.01 32.07 267.01C31.4033 267.01 30.82 267.16 30.32 267.46C29.8267 267.753 29.4167 268.167 29.09 268.7C28.7633 269.227 28.5167 269.84 28.35 270.54C28.1833 271.24 28.0967 271.993 28.09 272.8C28.09 273.6 28.17 274.353 28.33 275.06C28.4967 275.76 28.7433 276.377 29.07 276.91C29.4033 277.437 29.82 277.85 30.32 278.15C30.82 278.45 31.4033 278.6 32.07 278.6ZM39.2591 280V278.04H41.2191V280H39.2591ZM48.3336 280V265.6H49.9536L55.3936 277.07L60.8036 265.6H62.4436V279.99H60.7536V269.51L55.8636 280H54.9136L50.0236 269.51V280H48.3336ZM69.9277 280.3C68.8677 280.3 67.941 280.067 67.1477 279.6C66.361 279.127 65.7477 278.47 65.3077 277.63C64.8677 276.783 64.6477 275.797 64.6477 274.67C64.6477 273.49 64.8643 272.47 65.2977 271.61C65.731 270.743 66.3343 270.077 67.1077 269.61C67.8877 269.137 68.801 268.9 69.8477 268.9C70.9343 268.9 71.8577 269.15 72.6177 269.65C73.3843 270.15 73.9577 270.863 74.3377 271.79C74.7243 272.717 74.891 273.82 74.8377 275.1H73.0377V274.46C73.0177 273.133 72.7477 272.143 72.2277 271.49C71.7077 270.83 70.9343 270.5 69.9077 270.5C68.8077 270.5 67.971 270.853 67.3977 271.56C66.8243 272.267 66.5377 273.28 66.5377 274.6C66.5377 275.873 66.8243 276.86 67.3977 277.56C67.971 278.26 68.7877 278.61 69.8477 278.61C70.561 278.61 71.181 278.447 71.7077 278.12C72.2343 277.793 72.6477 277.323 72.9477 276.71L74.6577 277.3C74.2377 278.253 73.6043 278.993 72.7577 279.52C71.9177 280.04 70.9743 280.3 69.9277 280.3ZM65.9377 275.1V273.67H73.9177V275.1H65.9377ZM77.0541 280V269.2H78.8341V273.75H84.5141V269.2H86.2941V280H84.5141V275.44H78.8341V280H77.0541ZM89.0953 280L89.0853 269.2H90.8753V273.11H93.2053C93.5186 273.11 93.8386 273.117 94.1653 273.13C94.492 273.143 94.7753 273.173 95.0153 273.22C95.5753 273.327 96.0653 273.513 96.4853 273.78C96.9053 274.047 97.232 274.41 97.4653 274.87C97.6986 275.323 97.8153 275.887 97.8153 276.56C97.8153 277.493 97.572 278.233 97.0853 278.78C96.6053 279.32 95.9753 279.68 95.1953 279.86C94.9286 279.92 94.622 279.96 94.2753 279.98C93.9353 279.993 93.612 280 93.3053 280H89.0953ZM90.8753 278.53H93.3353C93.5353 278.53 93.7586 278.523 94.0053 278.51C94.252 278.497 94.472 278.463 94.6653 278.41C95.0053 278.31 95.3086 278.113 95.5753 277.82C95.8486 277.527 95.9853 277.107 95.9853 276.56C95.9853 276.007 95.852 275.58 95.5853 275.28C95.3253 274.98 94.982 274.783 94.5553 274.69C94.362 274.643 94.1586 274.613 93.9453 274.6C93.732 274.587 93.5286 274.58 93.3353 274.58H90.8753V278.53ZM99.7103 280V269.2H101.43V278.38H105.15V269.2H106.87V278.38H110.58V269.2H112.3V280H99.7103ZM119.691 280.3C118.618 280.3 117.691 280.057 116.911 279.57C116.138 279.083 115.541 278.41 115.121 277.55C114.701 276.69 114.491 275.703 114.491 274.59C114.491 273.457 114.705 272.463 115.131 271.61C115.558 270.757 116.161 270.093 116.941 269.62C117.721 269.14 118.638 268.9 119.691 268.9C120.771 268.9 121.701 269.143 122.481 269.63C123.261 270.11 123.858 270.78 124.271 271.64C124.691 272.493 124.901 273.477 124.901 274.59C124.901 275.717 124.691 276.71 124.271 277.57C123.851 278.423 123.251 279.093 122.471 279.58C121.691 280.06 120.765 280.3 119.691 280.3ZM119.691 278.61C120.811 278.61 121.645 278.237 122.191 277.49C122.738 276.743 123.011 275.777 123.011 274.59C123.011 273.37 122.735 272.4 122.181 271.68C121.628 270.953 120.798 270.59 119.691 270.59C118.938 270.59 118.318 270.76 117.831 271.1C117.345 271.44 116.981 271.91 116.741 272.51C116.501 273.11 116.381 273.803 116.381 274.59C116.381 275.803 116.661 276.777 117.221 277.51C117.781 278.243 118.605 278.61 119.691 278.61ZM127.093 280V269.2H131.693C131.966 269.2 132.26 269.217 132.573 269.25C132.893 269.277 133.183 269.327 133.443 269.4C134.023 269.553 134.5 269.87 134.873 270.35C135.253 270.823 135.443 271.423 135.443 272.15C135.443 272.557 135.38 272.91 135.253 273.21C135.133 273.51 134.96 273.77 134.733 273.99C134.633 274.09 134.523 274.18 134.403 274.26C134.283 274.34 134.163 274.403 134.043 274.45C134.276 274.49 134.513 274.58 134.753 274.72C135.133 274.927 135.43 275.217 135.643 275.59C135.863 275.963 135.973 276.44 135.973 277.02C135.973 277.753 135.796 278.36 135.443 278.84C135.09 279.313 134.603 279.64 133.983 279.82C133.723 279.893 133.436 279.943 133.123 279.97C132.81 279.99 132.506 280 132.213 280H127.093ZM128.893 278.55H132.113C132.253 278.55 132.42 278.537 132.613 278.51C132.813 278.483 132.99 278.45 133.143 278.41C133.49 278.31 133.74 278.123 133.893 277.85C134.053 277.577 134.133 277.28 134.133 276.96C134.133 276.533 134.013 276.187 133.773 275.92C133.54 275.653 133.23 275.487 132.843 275.42C132.703 275.38 132.55 275.357 132.383 275.35C132.223 275.343 132.08 275.34 131.953 275.34H128.893V278.55ZM128.893 273.87H131.573C131.76 273.87 131.956 273.86 132.163 273.84C132.37 273.813 132.55 273.77 132.703 273.71C133.01 273.597 133.233 273.41 133.373 273.15C133.52 272.883 133.593 272.593 133.593 272.28C133.593 271.933 133.513 271.63 133.353 271.37C133.2 271.103 132.963 270.92 132.643 270.82C132.43 270.74 132.19 270.697 131.923 270.69C131.663 270.677 131.496 270.67 131.423 270.67H128.893V273.87ZM141.052 280.3C140.245 280.3 139.569 280.153 139.022 279.86C138.482 279.56 138.072 279.167 137.792 278.68C137.519 278.193 137.382 277.66 137.382 277.08C137.382 276.513 137.489 276.023 137.702 275.61C137.922 275.19 138.229 274.843 138.622 274.57C139.015 274.29 139.485 274.07 140.032 273.91C140.545 273.77 141.119 273.65 141.752 273.55C142.392 273.443 143.039 273.347 143.692 273.26C144.345 273.173 144.955 273.09 145.522 273.01L144.882 273.38C144.902 272.42 144.709 271.71 144.302 271.25C143.902 270.79 143.209 270.56 142.222 270.56C141.569 270.56 140.995 270.71 140.502 271.01C140.015 271.303 139.672 271.783 139.472 272.45L137.782 271.94C138.042 270.993 138.545 270.25 139.292 269.71C140.039 269.17 141.022 268.9 142.242 268.9C143.222 268.9 144.062 269.077 144.762 269.43C145.469 269.777 145.975 270.303 146.282 271.01C146.435 271.343 146.532 271.707 146.572 272.1C146.612 272.487 146.632 272.893 146.632 273.32V280H145.052V277.41L145.422 277.65C145.015 278.523 144.445 279.183 143.712 279.63C142.985 280.077 142.099 280.3 141.052 280.3ZM141.322 278.81C141.962 278.81 142.515 278.697 142.982 278.47C143.455 278.237 143.835 277.933 144.122 277.56C144.409 277.18 144.595 276.767 144.682 276.32C144.782 275.987 144.835 275.617 144.842 275.21C144.855 274.797 144.862 274.48 144.862 274.26L145.482 274.53C144.902 274.61 144.332 274.687 143.772 274.76C143.212 274.833 142.682 274.913 142.182 275C141.682 275.08 141.232 275.177 140.832 275.29C140.539 275.383 140.262 275.503 140.002 275.65C139.749 275.797 139.542 275.987 139.382 276.22C139.229 276.447 139.152 276.73 139.152 277.07C139.152 277.363 139.225 277.643 139.372 277.91C139.525 278.177 139.759 278.393 140.072 278.56C140.392 278.727 140.809 278.81 141.322 278.81ZM149.032 282.24L149.142 281.41C149.422 281.43 149.632 281.377 149.772 281.25C149.912 281.123 150.002 280.95 150.042 280.73C150.082 280.51 150.089 280.267 150.062 280H149.032V277.74H150.992V280.3C150.992 281 150.819 281.527 150.472 281.88C150.132 282.233 149.652 282.353 149.032 282.24ZM164.722 280.3C163.289 280.3 162.072 279.983 161.072 279.35C160.072 278.717 159.309 277.837 158.782 276.71C158.262 275.583 158.002 274.28 158.002 272.8C158.002 271.32 158.262 270.017 158.782 268.89C159.309 267.763 160.072 266.883 161.072 266.25C162.072 265.617 163.289 265.3 164.722 265.3C166.162 265.3 167.382 265.617 168.382 266.25C169.382 266.883 170.142 267.763 170.662 268.89C171.182 270.017 171.442 271.32 171.442 272.8C171.442 274.28 171.182 275.583 170.662 276.71C170.142 277.837 169.382 278.717 168.382 279.35C167.382 279.983 166.162 280.3 164.722 280.3ZM164.722 278.6C165.796 278.607 166.689 278.367 167.402 277.88C168.122 277.387 168.659 276.703 169.012 275.83C169.372 274.957 169.552 273.947 169.552 272.8C169.552 271.647 169.372 270.637 169.012 269.77C168.659 268.903 168.122 268.227 167.402 267.74C166.689 267.253 165.796 267.007 164.722 267C163.649 266.993 162.756 267.233 162.042 267.72C161.336 268.207 160.802 268.887 160.442 269.76C160.082 270.633 159.899 271.647 159.892 272.8C159.886 273.947 160.062 274.953 160.422 275.82C160.782 276.687 161.319 277.367 162.032 277.86C162.752 278.347 163.649 278.593 164.722 278.6ZM172.775 280V278.04H174.735V280H172.775ZM180.649 280L186.709 272.59L181.159 265.6H183.349L188.549 272.26V265.6H190.329V272.26L195.529 265.6H197.719L192.169 272.59L198.229 280H195.979L190.329 273.06V280H188.549V273.06L182.899 280H180.649ZM203.912 280.3C202.852 280.3 201.925 280.067 201.132 279.6C200.345 279.127 199.732 278.47 199.292 277.63C198.852 276.783 198.632 275.797 198.632 274.67C198.632 273.49 198.849 272.47 199.282 271.61C199.715 270.743 200.319 270.077 201.092 269.61C201.872 269.137 202.785 268.9 203.832 268.9C204.919 268.9 205.842 269.15 206.602 269.65C207.369 270.15 207.942 270.863 208.322 271.79C208.709 272.717 208.875 273.82 208.822 275.1H207.022V274.46C207.002 273.133 206.732 272.143 206.212 271.49C205.692 270.83 204.919 270.5 203.892 270.5C202.792 270.5 201.955 270.853 201.382 271.56C200.809 272.267 200.522 273.28 200.522 274.6C200.522 275.873 200.809 276.86 201.382 277.56C201.955 278.26 202.772 278.61 203.832 278.61C204.545 278.61 205.165 278.447 205.692 278.12C206.219 277.793 206.632 277.323 206.932 276.71L208.642 277.3C208.222 278.253 207.589 278.993 206.742 279.52C205.902 280.04 204.959 280.3 203.912 280.3ZM199.922 275.1V273.67H207.902V275.1H199.922ZM210.048 280V278.47C210.448 278.543 210.752 278.53 210.958 278.43C211.172 278.323 211.328 278.14 211.428 277.88C211.535 277.613 211.622 277.28 211.688 276.88C211.802 276.247 211.898 275.54 211.978 274.76C212.065 273.98 212.142 273.127 212.208 272.2C212.282 271.267 212.348 270.267 212.408 269.2H219.958V280H218.178V270.89H214.028C213.988 271.503 213.938 272.133 213.878 272.78C213.825 273.427 213.768 274.057 213.708 274.67C213.648 275.277 213.582 275.843 213.508 276.37C213.442 276.89 213.368 277.34 213.288 277.72C213.162 278.373 212.985 278.897 212.758 279.29C212.532 279.677 212.205 279.927 211.778 280.04C211.352 280.16 210.775 280.147 210.048 280ZM227.447 280.3C226.387 280.3 225.461 280.067 224.667 279.6C223.881 279.127 223.267 278.47 222.827 277.63C222.387 276.783 222.167 275.797 222.167 274.67C222.167 273.49 222.384 272.47 222.817 271.61C223.251 270.743 223.854 270.077 224.627 269.61C225.407 269.137 226.321 268.9 227.367 268.9C228.454 268.9 229.377 269.15 230.137 269.65C230.904 270.15 231.477 270.863 231.857 271.79C232.244 272.717 232.411 273.82 232.357 275.1H230.557V274.46C230.537 273.133 230.267 272.143 229.747 271.49C229.227 270.83 228.454 270.5 227.427 270.5C226.327 270.5 225.491 270.853 224.917 271.56C224.344 272.267 224.057 273.28 224.057 274.6C224.057 275.873 224.344 276.86 224.917 277.56C225.491 278.26 226.307 278.61 227.367 278.61C228.081 278.61 228.701 278.447 229.227 278.12C229.754 277.793 230.167 277.323 230.467 276.71L232.177 277.3C231.757 278.253 231.124 278.993 230.277 279.52C229.437 280.04 228.494 280.3 227.447 280.3ZM223.457 275.1V273.67H231.437V275.1H223.457ZM238.063 280.3C236.996 280.3 236.053 280.07 235.233 279.61C234.413 279.143 233.766 278.503 233.293 277.69L234.713 276.77C235.106 277.363 235.576 277.82 236.123 278.14C236.67 278.453 237.293 278.61 237.993 278.61C238.726 278.61 239.31 278.443 239.743 278.11C240.176 277.77 240.393 277.313 240.393 276.74C240.393 276.313 240.286 275.987 240.073 275.76C239.86 275.533 239.553 275.377 239.153 275.29C238.753 275.203 238.276 275.16 237.723 275.16H236.603V273.69H237.713C238.413 273.69 238.983 273.577 239.423 273.35C239.863 273.123 240.083 272.737 240.083 272.19C240.083 271.63 239.876 271.223 239.463 270.97C239.056 270.71 238.57 270.58 238.003 270.58C237.403 270.58 236.83 270.707 236.283 270.96C235.736 271.207 235.266 271.52 234.873 271.9L233.793 270.69C234.353 270.117 234.996 269.677 235.723 269.37C236.456 269.057 237.253 268.9 238.113 268.9C238.806 268.9 239.44 269.023 240.013 269.27C240.593 269.51 241.053 269.867 241.393 270.34C241.74 270.807 241.913 271.377 241.913 272.05C241.913 272.623 241.78 273.133 241.513 273.58C241.246 274.027 240.853 274.417 240.333 274.75L240.263 274.12C240.703 274.227 241.066 274.423 241.353 274.71C241.646 274.99 241.863 275.323 242.003 275.71C242.143 276.097 242.213 276.5 242.213 276.92C242.213 277.627 242.026 278.233 241.653 278.74C241.286 279.24 240.79 279.627 240.163 279.9C239.536 280.167 238.836 280.3 238.063 280.3ZM244.398 280V269.2H246.178V273.75H251.858V269.2H253.638V280H251.858V275.44H246.178V280H244.398ZM263.109 280V276.09H260.779C260.506 276.09 260.202 276.08 259.869 276.06C259.542 276.033 259.236 275.997 258.949 275.95C258.169 275.803 257.509 275.46 256.969 274.92C256.436 274.38 256.169 273.633 256.169 272.68C256.169 271.753 256.419 271.01 256.919 270.45C257.426 269.883 258.049 269.517 258.789 269.35C259.122 269.27 259.459 269.227 259.799 269.22C260.146 269.207 260.439 269.2 260.679 269.2H264.889L264.899 280H263.109ZM255.839 280L258.709 275.6H260.629L257.759 280H255.839ZM260.649 274.62H263.109V270.67H260.649C260.496 270.67 260.292 270.677 260.039 270.69C259.792 270.703 259.556 270.743 259.329 270.81C259.116 270.87 258.906 270.98 258.699 271.14C258.499 271.3 258.332 271.507 258.199 271.76C258.066 272.013 257.999 272.313 257.999 272.66C257.999 273.16 258.139 273.567 258.419 273.88C258.699 274.187 259.039 274.393 259.439 274.5C259.659 274.553 259.876 274.587 260.089 274.6C260.309 274.613 260.496 274.62 260.649 274.62ZM267.699 280L267.709 269.2H269.509V274.4L274.039 269.2H276.349L271.579 274.6L276.909 280H274.419L269.509 274.8V280H267.699ZM277.704 282.24L277.814 281.41C278.094 281.43 278.304 281.377 278.444 281.25C278.584 281.123 278.674 280.95 278.714 280.73C278.754 280.51 278.761 280.267 278.734 280H277.704V277.74H279.664V280.3C279.664 281 279.491 281.527 279.144 281.88C278.804 282.233 278.324 282.353 277.704 282.24ZM287.474 280V265.6H289.254V272.36L295.554 265.6H297.794L291.254 272.59L298.304 280H296.004L289.254 272.96V280H287.474ZM300.021 280V278.04H301.981V280H300.021ZM309.095 280V265.6H310.875V271.91H314.415V273.69H310.875V280H309.095ZM319.765 280.3C318.812 280.3 317.969 280.11 317.235 279.73C316.502 279.35 315.889 278.82 315.395 278.14C314.902 277.46 314.529 276.663 314.275 275.75C314.022 274.837 313.895 273.853 313.895 272.8C313.895 271.733 314.022 270.747 314.275 269.84C314.529 268.933 314.902 268.14 315.395 267.46C315.889 266.78 316.502 266.253 317.235 265.88C317.969 265.5 318.812 265.31 319.765 265.31C320.725 265.31 321.569 265.5 322.295 265.88C323.029 266.253 323.642 266.78 324.135 267.46C324.629 268.14 325.002 268.933 325.255 269.84C325.509 270.747 325.635 271.733 325.635 272.8C325.635 273.88 325.509 274.877 325.255 275.79C325.002 276.703 324.629 277.5 324.135 278.18C323.642 278.853 323.029 279.377 322.295 279.75C321.569 280.117 320.725 280.3 319.765 280.3ZM319.765 278.6C320.432 278.6 321.012 278.45 321.505 278.15C322.005 277.85 322.419 277.437 322.745 276.91C323.079 276.377 323.329 275.76 323.495 275.06C323.662 274.353 323.745 273.6 323.745 272.8C323.752 271.993 323.672 271.24 323.505 270.54C323.345 269.84 323.099 269.227 322.765 268.7C322.439 268.167 322.022 267.753 321.515 267.46C321.015 267.16 320.432 267.01 319.765 267.01C319.099 267.01 318.515 267.16 318.015 267.46C317.522 267.753 317.112 268.167 316.785 268.7C316.459 269.227 316.212 269.84 316.045 270.54C315.879 271.24 315.792 271.993 315.785 272.8C315.785 273.6 315.865 274.353 316.025 275.06C316.192 275.76 316.439 276.377 316.765 276.91C317.099 277.437 317.515 277.85 318.015 278.15C318.515 278.45 319.099 278.6 319.765 278.6ZM327.62 280V269.2H329.34V278.38H333.06V269.2H334.78V278.38H338.49V269.2H340.21V280H327.62ZM342.992 280L343.002 269.2H344.802V274.4L349.332 269.2H351.642L346.872 274.6L352.202 280H349.712L344.802 274.8V280H342.992ZM357.486 280.3C356.426 280.3 355.5 280.067 354.706 279.6C353.92 279.127 353.306 278.47 352.866 277.63C352.426 276.783 352.206 275.797 352.206 274.67C352.206 273.49 352.423 272.47 352.856 271.61C353.29 270.743 353.893 270.077 354.666 269.61C355.446 269.137 356.36 268.9 357.406 268.9C358.493 268.9 359.416 269.15 360.176 269.65C360.943 270.15 361.516 270.863 361.896 271.79C362.283 272.717 362.45 273.82 362.396 275.1H360.596V274.46C360.576 273.133 360.306 272.143 359.786 271.49C359.266 270.83 358.493 270.5 357.466 270.5C356.366 270.5 355.53 270.853 354.956 271.56C354.383 272.267 354.096 273.28 354.096 274.6C354.096 275.873 354.383 276.86 354.956 277.56C355.53 278.26 356.346 278.61 357.406 278.61C358.12 278.61 358.74 278.447 359.266 278.12C359.793 277.793 360.206 277.323 360.506 276.71L362.216 277.3C361.796 278.253 361.163 278.993 360.316 279.52C359.476 280.04 358.533 280.3 357.486 280.3ZM353.496 275.1V273.67H361.476V275.1H353.496ZM364.613 280V269.2H369.213C369.486 269.2 369.779 269.217 370.093 269.25C370.413 269.277 370.703 269.327 370.963 269.4C371.543 269.553 372.019 269.87 372.393 270.35C372.773 270.823 372.963 271.423 372.963 272.15C372.963 272.557 372.899 272.91 372.773 273.21C372.653 273.51 372.479 273.77 372.253 273.99C372.153 274.09 372.043 274.18 371.923 274.26C371.803 274.34 371.683 274.403 371.563 274.45C371.796 274.49 372.033 274.58 372.273 274.72C372.653 274.927 372.949 275.217 373.163 275.59C373.383 275.963 373.493 276.44 373.493 277.02C373.493 277.753 373.316 278.36 372.963 278.84C372.609 279.313 372.123 279.64 371.503 279.82C371.243 279.893 370.956 279.943 370.643 279.97C370.329 279.99 370.026 280 369.733 280H364.613ZM366.413 278.55H369.633C369.773 278.55 369.939 278.537 370.133 278.51C370.333 278.483 370.509 278.45 370.663 278.41C371.009 278.31 371.259 278.123 371.413 277.85C371.573 277.577 371.653 277.28 371.653 276.96C371.653 276.533 371.533 276.187 371.293 275.92C371.059 275.653 370.749 275.487 370.363 275.42C370.223 275.38 370.069 275.357 369.903 275.35C369.743 275.343 369.599 275.34 369.473 275.34H366.413V278.55ZM366.413 273.87H369.093C369.279 273.87 369.476 273.86 369.683 273.84C369.889 273.813 370.069 273.77 370.223 273.71C370.529 273.597 370.753 273.41 370.893 273.15C371.039 272.883 371.113 272.593 371.113 272.28C371.113 271.933 371.033 271.63 370.873 271.37C370.719 271.103 370.483 270.92 370.163 270.82C369.949 270.74 369.709 270.697 369.443 270.69C369.183 270.677 369.016 270.67 368.943 270.67H366.413V273.87ZM384.342 269.2V280H382.622V272.04L376.962 280H375.492V269.2H377.212V277.05L382.882 269.2H384.342ZM393.642 280V276.11C393.282 276.29 392.846 276.443 392.332 276.57C391.826 276.697 391.282 276.76 390.702 276.76C389.602 276.76 388.716 276.513 388.042 276.02C387.369 275.527 386.929 274.817 386.722 273.89C386.662 273.61 386.619 273.32 386.592 273.02C386.572 272.72 386.559 272.447 386.552 272.2C386.546 271.953 386.542 271.773 386.542 271.66V269.2H388.342V271.66C388.342 271.853 388.349 272.093 388.362 272.38C388.376 272.66 388.409 272.933 388.462 273.2C388.596 273.86 388.872 274.357 389.292 274.69C389.719 275.023 390.319 275.19 391.092 275.19C391.612 275.19 392.092 275.123 392.532 274.99C392.972 274.857 393.342 274.68 393.642 274.46V269.2H395.432V280H393.642ZM398.036 282.24L398.146 281.41C398.426 281.43 398.636 281.377 398.776 281.25C398.916 281.123 399.006 280.95 399.046 280.73C399.086 280.51 399.093 280.267 399.066 280H398.036V277.74H399.996V280.3C399.996 281 399.823 281.527 399.476 281.88C399.136 282.233 398.656 282.353 398.036 282.24ZM406.806 280L411.626 265.6H414.106L418.926 280H417.076L412.566 266.64H413.126L408.656 280H406.806ZM409.126 276.63V274.96H416.606V276.63H409.126ZM421.036 280V278.04H422.996V280H421.036ZM436.031 280.3C434.598 280.3 433.381 279.983 432.381 279.35C431.381 278.717 430.618 277.837 430.091 276.71C429.571 275.583 429.311 274.28 429.311 272.8C429.311 271.32 429.571 270.017 430.091 268.89C430.618 267.763 431.381 266.883 432.381 266.25C433.381 265.617 434.598 265.3 436.031 265.3C437.698 265.3 439.068 265.723 440.141 266.57C441.221 267.417 441.964 268.557 442.371 269.99L440.561 270.47C440.268 269.397 439.744 268.55 438.991 267.93C438.238 267.31 437.251 267 436.031 267C434.958 267 434.064 267.243 433.351 267.73C432.638 268.217 432.101 268.897 431.741 269.77C431.381 270.637 431.198 271.647 431.191 272.8C431.184 273.947 431.361 274.957 431.721 275.83C432.081 276.697 432.621 277.377 433.341 277.87C434.061 278.357 434.958 278.6 436.031 278.6C437.251 278.6 438.238 278.29 438.991 277.67C439.744 277.043 440.268 276.197 440.561 275.13L442.371 275.61C441.964 277.037 441.221 278.177 440.141 279.03C439.068 279.877 437.698 280.3 436.031 280.3ZM449.164 280.3C448.091 280.3 447.164 280.057 446.384 279.57C445.611 279.083 445.014 278.41 444.594 277.55C444.174 276.69 443.964 275.703 443.964 274.59C443.964 273.457 444.177 272.463 444.604 271.61C445.031 270.757 445.634 270.093 446.414 269.62C447.194 269.14 448.111 268.9 449.164 268.9C450.244 268.9 451.174 269.143 451.954 269.63C452.734 270.11 453.331 270.78 453.744 271.64C454.164 272.493 454.374 273.477 454.374 274.59C454.374 275.717 454.164 276.71 453.744 277.57C453.324 278.423 452.724 279.093 451.944 279.58C451.164 280.06 450.237 280.3 449.164 280.3ZM449.164 278.61C450.284 278.61 451.117 278.237 451.664 277.49C452.211 276.743 452.484 275.777 452.484 274.59C452.484 273.37 452.207 272.4 451.654 271.68C451.101 270.953 450.271 270.59 449.164 270.59C448.411 270.59 447.791 270.76 447.304 271.1C446.817 271.44 446.454 271.91 446.214 272.51C445.974 273.11 445.854 273.803 445.854 274.59C445.854 275.803 446.134 276.777 446.694 277.51C447.254 278.243 448.077 278.61 449.164 278.61ZM456.566 280L456.576 269.2H458.376V274.4L462.906 269.2H465.216L460.446 274.6L465.776 280H463.286L458.376 274.8V280H456.566ZM471.176 280.3C470.102 280.3 469.176 280.057 468.396 279.57C467.622 279.083 467.026 278.41 466.606 277.55C466.186 276.69 465.976 275.703 465.976 274.59C465.976 273.457 466.189 272.463 466.616 271.61C467.042 270.757 467.646 270.093 468.426 269.62C469.206 269.14 470.122 268.9 471.176 268.9C472.256 268.9 473.186 269.143 473.966 269.63C474.746 270.11 475.342 270.78 475.756 271.64C476.176 272.493 476.386 273.477 476.386 274.59C476.386 275.717 476.176 276.71 475.756 277.57C475.336 278.423 474.736 279.093 473.956 279.58C473.176 280.06 472.249 280.3 471.176 280.3ZM471.176 278.61C472.296 278.61 473.129 278.237 473.676 277.49C474.222 276.743 474.496 275.777 474.496 274.59C474.496 273.37 474.219 272.4 473.666 271.68C473.112 270.953 472.282 270.59 471.176 270.59C470.422 270.59 469.802 270.76 469.316 271.1C468.829 271.44 468.466 271.91 468.226 272.51C467.986 273.11 467.866 273.803 467.866 274.59C467.866 275.803 468.146 276.777 468.706 277.51C469.266 278.243 470.089 278.61 471.176 278.61ZM477.588 280V278.47C477.988 278.543 478.291 278.53 478.498 278.43C478.711 278.323 478.868 278.14 478.968 277.88C479.074 277.613 479.161 277.28 479.228 276.88C479.341 276.247 479.438 275.54 479.518 274.76C479.604 273.98 479.681 273.127 479.748 272.2C479.821 271.267 479.888 270.267 479.948 269.2H487.498V280H485.718V270.89H481.568C481.528 271.503 481.478 272.133 481.418 272.78C481.364 273.427 481.308 274.057 481.248 274.67C481.188 275.277 481.121 275.843 481.048 276.37C480.981 276.89 480.908 277.34 480.828 277.72C480.701 278.373 480.524 278.897 480.298 279.29C480.071 279.677 479.744 279.927 479.318 280.04C478.891 280.16 478.314 280.147 477.588 280ZM494.906 280.3C493.833 280.3 492.906 280.057 492.126 279.57C491.353 279.083 490.756 278.41 490.336 277.55C489.916 276.69 489.706 275.703 489.706 274.59C489.706 273.457 489.92 272.463 490.346 271.61C490.773 270.757 491.376 270.093 492.156 269.62C492.936 269.14 493.853 268.9 494.906 268.9C495.986 268.9 496.916 269.143 497.696 269.63C498.476 270.11 499.073 270.78 499.486 271.64C499.906 272.493 500.116 273.477 500.116 274.59C500.116 275.717 499.906 276.71 499.486 277.57C499.066 278.423 498.466 279.093 497.686 279.58C496.906 280.06 495.98 280.3 494.906 280.3ZM494.906 278.61C496.026 278.61 496.86 278.237 497.406 277.49C497.953 276.743 498.226 275.777 498.226 274.59C498.226 273.37 497.95 272.4 497.396 271.68C496.843 270.953 496.013 270.59 494.906 270.59C494.153 270.59 493.533 270.76 493.046 271.1C492.56 271.44 492.196 271.91 491.956 272.51C491.716 273.11 491.596 273.803 491.596 274.59C491.596 275.803 491.876 276.777 492.436 277.51C492.996 278.243 493.82 278.61 494.906 278.61ZM502.308 280V269.2H506.908C507.181 269.2 507.475 269.217 507.788 269.25C508.108 269.277 508.398 269.327 508.658 269.4C509.238 269.553 509.715 269.87 510.088 270.35C510.468 270.823 510.658 271.423 510.658 272.15C510.658 272.557 510.595 272.91 510.468 273.21C510.348 273.51 510.175 273.77 509.948 273.99C509.848 274.09 509.738 274.18 509.618 274.26C509.498 274.34 509.378 274.403 509.258 274.45C509.491 274.49 509.728 274.58 509.968 274.72C510.348 274.927 510.645 275.217 510.858 275.59C511.078 275.963 511.188 276.44 511.188 277.02C511.188 277.753 511.011 278.36 510.658 278.84C510.305 279.313 509.818 279.64 509.198 279.82C508.938 279.893 508.651 279.943 508.338 279.97C508.025 279.99 507.721 280 507.428 280H502.308ZM504.108 278.55H507.328C507.468 278.55 507.635 278.537 507.828 278.51C508.028 278.483 508.205 278.45 508.358 278.41C508.705 278.31 508.955 278.123 509.108 277.85C509.268 277.577 509.348 277.28 509.348 276.96C509.348 276.533 509.228 276.187 508.988 275.92C508.755 275.653 508.445 275.487 508.058 275.42C507.918 275.38 507.765 275.357 507.598 275.35C507.438 275.343 507.295 275.34 507.168 275.34H504.108V278.55ZM504.108 273.87H506.788C506.975 273.87 507.171 273.86 507.378 273.84C507.585 273.813 507.765 273.77 507.918 273.71C508.225 273.597 508.448 273.41 508.588 273.15C508.735 272.883 508.808 272.593 508.808 272.28C508.808 271.933 508.728 271.63 508.568 271.37C508.415 271.103 508.178 270.92 507.858 270.82C507.645 270.74 507.405 270.697 507.138 270.69C506.878 270.677 506.711 270.67 506.638 270.67H504.108V273.87Z" fill="white"/>
<path d="M23.91 55V42.57L21.2 44.21V42.22L23.91 40.6H25.72V55H23.91ZM34.025 55.3C33.105 55.3 32.2917 55.1167 31.585 54.75C30.8783 54.3767 30.325 53.86 29.925 53.2C29.525 52.54 29.325 51.77 29.325 50.89C29.325 50.03 29.5283 49.2533 29.935 48.56C30.3483 47.8667 30.9683 47.3333 31.795 46.96L31.765 47.61C31.0917 47.2833 30.575 46.8233 30.215 46.23C29.855 45.63 29.675 44.9667 29.675 44.24C29.675 43.4267 29.8617 42.7267 30.235 42.14C30.6083 41.5533 31.1217 41.1 31.775 40.78C32.4283 40.46 33.1783 40.3 34.025 40.3C34.8717 40.3 35.6217 40.46 36.275 40.78C36.9283 41.1 37.4417 41.5533 37.815 42.14C38.1883 42.7267 38.375 43.4267 38.375 44.24C38.375 44.9667 38.205 45.6267 37.865 46.22C37.525 46.8067 37.0017 47.27 36.295 47.61L36.255 46.97C37.0817 47.33 37.7017 47.86 38.115 48.56C38.535 49.2533 38.745 50.03 38.745 50.89C38.745 51.77 38.5417 52.54 38.135 53.2C37.735 53.86 37.1783 54.3767 36.465 54.75C35.7583 55.1167 34.945 55.3 34.025 55.3ZM34.025 53.6C34.865 53.6 35.545 53.37 36.065 52.91C36.5917 52.4433 36.855 51.77 36.855 50.89C36.855 50.0033 36.595 49.33 36.075 48.87C35.5617 48.4033 34.8783 48.17 34.025 48.17C33.1783 48.17 32.495 48.4033 31.975 48.87C31.4617 49.33 31.205 50.0033 31.205 50.89C31.205 51.77 31.465 52.4433 31.985 52.91C32.505 53.37 33.185 53.6 34.025 53.6ZM34.025 46.46C34.7583 46.46 35.3517 46.2767 35.805 45.91C36.2583 45.5367 36.485 44.98 36.485 44.24C36.485 43.5 36.2583 42.9467 35.805 42.58C35.3517 42.2067 34.7583 42.02 34.025 42.02C33.2983 42.02 32.705 42.2067 32.245 42.58C31.7917 42.9467 31.565 43.5 31.565 44.24C31.565 44.98 31.7917 45.5367 32.245 45.91C32.705 46.2767 33.2983 46.46 34.025 46.46ZM54.1853 44.2V55H52.4653V47.04L46.8053 55H45.3353V44.2H47.0553V52.05L52.7253 44.2H54.1853ZM65.7959 55.3C64.8759 55.3 64.0626 55.1033 63.3559 54.71C62.6559 54.3167 62.0926 53.76 61.6659 53.04C61.2393 52.32 60.9726 51.47 60.8659 50.49H58.7559V55H56.9759V44.2H58.7559V48.71H60.8559C60.9626 47.71 61.2326 46.85 61.6659 46.13C62.0993 45.41 62.6693 44.86 63.3759 44.48C64.0826 44.0933 64.8959 43.9 65.8159 43.9C66.8893 43.9 67.8126 44.1433 68.5859 44.63C69.3659 45.1167 69.9626 45.7867 70.3759 46.64C70.7959 47.4933 71.0059 48.4733 71.0059 49.58C71.0059 50.7067 70.7926 51.7 70.3659 52.56C69.9459 53.42 69.3459 54.0933 68.5659 54.58C67.7926 55.06 66.8693 55.3 65.7959 55.3ZM65.7659 53.61C66.8993 53.61 67.7393 53.24 68.2859 52.5C68.8393 51.7533 69.1159 50.7833 69.1159 49.59C69.1159 48.3633 68.8359 47.39 68.2759 46.67C67.7226 45.95 66.8893 45.59 65.7759 45.59C64.7026 45.59 63.8859 45.9467 63.3259 46.66C62.7659 47.3733 62.4859 48.3467 62.4859 49.58C62.4859 50.8 62.7626 51.7767 63.3159 52.51C63.8759 53.2433 64.6926 53.61 65.7659 53.61ZM73.1869 55V44.2H74.9669V48.75H80.6469V44.2H82.4269V55H80.6469V50.44H74.9669V55H73.1869ZM91.8981 55V51.09H89.5681C89.2948 51.09 88.9915 51.08 88.6581 51.06C88.3315 51.0333 88.0248 50.9967 87.7381 50.95C86.9581 50.8033 86.2981 50.46 85.7581 49.92C85.2248 49.38 84.9581 48.6333 84.9581 47.68C84.9581 46.7533 85.2081 46.01 85.7081 45.45C86.2148 44.8833 86.8381 44.5167 87.5781 44.35C87.9115 44.27 88.2481 44.2267 88.5881 44.22C88.9348 44.2067 89.2281 44.2 89.4681 44.2H93.6781L93.6881 55H91.8981ZM84.6281 55L87.4981 50.6H89.4181L86.5481 55H84.6281ZM89.4381 49.62H91.8981V45.67H89.4381C89.2848 45.67 89.0815 45.6767 88.8281 45.69C88.5815 45.7033 88.3448 45.7433 88.1181 45.81C87.9048 45.87 87.6948 45.98 87.4881 46.14C87.2881 46.3 87.1215 46.5067 86.9881 46.76C86.8548 47.0133 86.7881 47.3133 86.7881 47.66C86.7881 48.16 86.9281 48.5667 87.2081 48.88C87.4881 49.1867 87.8281 49.3933 88.2281 49.5C88.4481 49.5533 88.6648 49.5867 88.8781 49.6C89.0981 49.6133 89.2848 49.62 89.4381 49.62Z" fill="white"/>
<path d="M344.642 55V40.6H346.422V47.36L352.722 40.6H354.962L348.422 47.59L355.472 55H353.172L346.422 47.96V55H344.642ZM360.936 55.3C359.949 55.3 359.089 55.1567 358.356 54.87C357.629 54.5767 357.026 54.1967 356.546 53.73C356.072 53.2567 355.712 52.75 355.466 52.21L357.046 51.23C357.206 51.65 357.452 52.04 357.786 52.4C358.126 52.76 358.559 53.05 359.086 53.27C359.619 53.49 360.259 53.6 361.006 53.6C361.766 53.6 362.402 53.4833 362.916 53.25C363.429 53.01 363.812 52.6867 364.066 52.28C364.326 51.8667 364.456 51.3933 364.456 50.86C364.456 50.2533 364.306 49.7867 364.006 49.46C363.706 49.1267 363.302 48.8933 362.796 48.76C362.296 48.62 361.742 48.54 361.136 48.52C360.662 48.5 360.322 48.4867 360.116 48.48C359.909 48.4733 359.769 48.47 359.696 48.47C359.629 48.47 359.566 48.47 359.506 48.47V46.77C359.566 46.77 359.692 46.77 359.886 46.77C360.079 46.77 360.282 46.77 360.496 46.77C360.709 46.7633 360.879 46.7567 361.006 46.75C361.899 46.7033 362.609 46.4767 363.136 46.07C363.662 45.6567 363.926 45.09 363.926 44.37C363.926 43.6233 363.656 43.04 363.116 42.62C362.582 42.2 361.886 41.99 361.026 41.99C360.212 41.99 359.519 42.18 358.946 42.56C358.379 42.94 357.926 43.43 357.586 44.03L356.216 42.86C356.682 42.12 357.329 41.51 358.156 41.03C358.989 40.5433 359.962 40.3 361.076 40.3C361.689 40.3 362.279 40.3833 362.846 40.55C363.419 40.71 363.926 40.9567 364.366 41.29C364.812 41.6167 365.166 42.0333 365.426 42.54C365.686 43.04 365.816 43.6333 365.816 44.32C365.816 45.06 365.659 45.7167 365.346 46.29C365.032 46.8633 364.622 47.3067 364.116 47.62C364.816 47.8533 365.362 48.24 365.756 48.78C366.149 49.32 366.346 50.02 366.346 50.88C366.346 51.78 366.116 52.56 365.656 53.22C365.202 53.88 364.569 54.3933 363.756 54.76C362.942 55.12 362.002 55.3 360.936 55.3ZM379.621 57V55H368.451V40.6H370.231V53.38H378.071V40.8H379.851V53.38H381.401V57H379.621ZM394.335 53.97L390.855 49.59L394.335 45.22L395.355 46.02L392.505 49.59L395.355 53.17L394.335 53.97ZM390.685 53.97L387.205 49.59L390.685 45.22L391.705 46.02L388.855 49.59L391.705 53.17L390.685 53.97ZM398.06 55V40.6H399.68L405.12 52.07L410.53 40.6H412.17V54.99H410.48V44.51L405.59 55H404.64L399.75 44.51V55H398.06ZM423.814 44.2V55H422.094V47.04L416.434 55H414.964V44.2H416.684V52.05L422.354 44.2H423.814ZM425.615 55V53.47C426.015 53.5433 426.318 53.53 426.525 53.43C426.738 53.3233 426.895 53.14 426.995 52.88C427.102 52.6133 427.188 52.28 427.255 51.88C427.368 51.2467 427.465 50.54 427.545 49.76C427.632 48.98 427.708 48.1267 427.775 47.2C427.848 46.2667 427.915 45.2667 427.975 44.2H435.525V55H433.745V45.89H429.595C429.555 46.5033 429.505 47.1333 429.445 47.78C429.392 48.4267 429.335 49.0567 429.275 49.67C429.215 50.2767 429.148 50.8433 429.075 51.37C429.008 51.89 428.935 52.34 428.855 52.72C428.728 53.3733 428.552 53.8967 428.325 54.29C428.098 54.6767 427.772 54.9267 427.345 55.04C426.918 55.16 426.342 55.1467 425.615 55ZM437.334 55V53.47C437.734 53.5433 438.037 53.53 438.244 53.43C438.457 53.3233 438.614 53.14 438.714 52.88C438.82 52.6133 438.907 52.28 438.974 51.88C439.087 51.2467 439.184 50.54 439.264 49.76C439.35 48.98 439.427 48.1267 439.494 47.2C439.567 46.2667 439.634 45.2667 439.694 44.2H447.244V55H445.464V45.89H441.314C441.274 46.5033 441.224 47.1333 441.164 47.78C441.11 48.4267 441.054 49.0567 440.994 49.67C440.934 50.2767 440.867 50.8433 440.794 51.37C440.727 51.89 440.654 52.34 440.574 52.72C440.447 53.3733 440.27 53.8967 440.044 54.29C439.817 54.6767 439.49 54.9267 439.064 55.04C438.637 55.16 438.06 55.1467 437.334 55ZM454.732 55.3C453.672 55.3 452.746 55.0667 451.952 54.6C451.166 54.1267 450.552 53.47 450.112 52.63C449.672 51.7833 449.452 50.7967 449.452 49.67C449.452 48.49 449.669 47.47 450.102 46.61C450.536 45.7433 451.139 45.0767 451.912 44.61C452.692 44.1367 453.606 43.9 454.652 43.9C455.739 43.9 456.662 44.15 457.422 44.65C458.189 45.15 458.762 45.8633 459.142 46.79C459.529 47.7167 459.696 48.82 459.642 50.1H457.842V49.46C457.822 48.1333 457.552 47.1433 457.032 46.49C456.512 45.83 455.739 45.5 454.712 45.5C453.612 45.5 452.776 45.8533 452.202 46.56C451.629 47.2667 451.342 48.28 451.342 49.6C451.342 50.8733 451.629 51.86 452.202 52.56C452.776 53.26 453.592 53.61 454.652 53.61C455.366 53.61 455.986 53.4467 456.512 53.12C457.039 52.7933 457.452 52.3233 457.752 51.71L459.462 52.3C459.042 53.2533 458.409 53.9933 457.562 54.52C456.722 55.04 455.779 55.3 454.732 55.3ZM450.742 50.1V48.67H458.722V50.1H450.742ZM461.859 55V44.2H463.639V48.75H469.319V44.2H471.099V55H469.319V50.44H463.639V55H461.859ZM482.74 44.2V55H481.02V47.04L475.36 55H473.89V44.2H475.61V52.05L481.28 44.2H482.74ZM487.041 59.8L489.131 54.12L489.161 55.8L484.441 44.2H486.311L490.011 53.53H489.371L492.841 44.2H494.651L488.771 59.8H487.041ZM496.292 55V44.2H497.822L501.922 52.58L506.022 44.2H507.552V55H505.832V47.91L502.392 55H501.452L498.012 47.91V55H496.292ZM511.265 53.97L510.245 53.17L513.095 49.59L510.245 46.02L511.265 45.22L514.745 49.59L511.265 53.97ZM514.915 53.97L513.895 53.17L516.745 49.59L513.895 46.02L514.915 45.22L518.395 49.59L514.915 53.97Z" fill="white"/>
</svg>
